<?xml version="1.0" encoding="UTF-8"?><svg id="_圖層_2" xmlns="http://www.w3.org/2000/svg" viewBox="0 0 37.51 25.28"><defs><style>.cls-1{fill:#17803d;}</style></defs><g id="_圖層_1-2"><path class="cls-1" d="M6.31,24.71l21.56.57c5.21.12,9.53-4.02,9.65-9.23.11-5.02-3.73-9.21-8.67-9.61l.11-.02C27.13,2.7,23.35.1,18.93,0,7.24-.25,7.43,10.53,7.43,10.53,3.26,10.44.09,12.82,0,16.99c-.09,4.17,2.13,7.63,6.3,7.72ZM17.95,20.21c-3.32,1.02-6.84-.85-7.86-4.17-.43-1.4-.34-2.84.15-4.11.45-1.17,1.25-2.19,2.3-2.92l-.53-.61c-.07-.08-.09-.2-.05-.3.04-.1.14-.17.25-.17l4.8-.23c.09,0,.17.03.23.1.06.07.08.16.06.24l-.9,4.58c-.02.11-.1.19-.21.22-.11.03-.22,0-.29-.09l-.86-1.01c-.74.41-1.3,1.08-1.62,1.88-.34.85-.41,1.84-.12,2.83.01.01.03.02.05.03.05.03.11.07.19.1.16.07.36.15.59.22.46.14,1.04.24,1.56.25.35,0,.68-.02.94-.1.02,0,.05-.01.07-.02.15-.05.31.02.36.17l1.07,2.73c.03.07.03.16,0,.23-.03.07-.1.13-.17.15ZM24.96,21.46l-4.8.23c-.09,0-.17-.03-.23-.1-.06-.07-.08-.16-.06-.24l.9-4.58c.02-.11.1-.19.21-.22.11-.03.22,0,.29.09l.86,1.01c.74-.41,1.3-1.08,1.62-1.88.34-.85.41-1.84.12-2.83-.01-.01-.03-.02-.05-.03-.05-.03-.11-.07-.19-.1-.16-.07-.36-.15-.59-.22-.46-.14-1.04-.24-1.56-.25-.35,0-.68.02-.94.1-.02,0-.05.01-.07.02-.15.05-.31-.02-.36-.17l-1.07-2.73c-.03-.07-.03-.16,0-.23.03-.07.1-.13.17-.15,3.32-1.02,6.84.85,7.86,4.17.43,1.4.34,2.84-.15,4.11-.45,1.17-1.25,2.19-2.3,2.92l.53.61c.07.08.09.2.05.3-.04.1-.14.17-.25.17Z"/></g></svg>