<?xml version="1.0" encoding="UTF-8"?><svg id="_圖層_2" xmlns="http://www.w3.org/2000/svg" viewBox="0 0 79 59.04"><defs><style>.cls-1{fill:#fff;fill-rule:evenodd;}</style></defs><g id="_圖層_1-2"><path class="cls-1" d="M.52,42.69c-.24,0-.43-.19-.43-.43,0-.09.03-.17.07-.24l.13-.16,8.5-11.15.08-.09.05-.06c.08-.07.17-.11.28-.11.13,0,.24.05.32.14l.08.09,8.71,11.27.02.03c.07.08.11.18.11.29,0,.24-.19.43-.43.43H.52ZM17.97,44.28c.24,0,.43.19.43.43v13.72c0,.24-.19.43-.43.43h-5.79v-8.63c0-.24-.19-.43-.43-.43h-5.24c-.24,0-.43.19-.43.43v8.63H.43c-.24,0-.43-.19-.43-.43v-13.72c0-.24.19-.43.43-.43h17.54ZM78.58,40.68c.24,0,.42.18.42.41v17.53c0,.23-.19.41-.42.41h-17.36c-.23,0-.42-.19-.42-.41v-17.53c0-.23.19-.41.42-.41h17.36ZM77.01,46.3v-3.15c0-.23-.19-.41-.42-.41h-5.18c-.24,0-.42.19-.42.41v3.15c0,.23.19.41.42.41h5.18c.24,0,.42-.19.42-.41ZM69.08,46.3v-3.15c0-.23-.19-.41-.42-.41h-5.19c-.24,0-.43.19-.43.41v3.15c0,.23.19.41.43.41h5.19c.24,0,.42-.19.42-.41ZM77.01,52.13v-3.15c0-.23-.19-.41-.42-.41h-5.18c-.24,0-.42.18-.42.41v3.15c0,.23.19.41.42.41h5.18c.24,0,.42-.18.42-.41ZM69.08,52.13v-3.15c0-.23-.19-.41-.42-.41h-5.19c-.24,0-.43.18-.43.41v3.15c0,.23.19.41.43.41h5.19c.24,0,.42-.18.42-.41ZM38.23,0c.23,0,.42.19.42.42v58.05c0,.23-.19.42-.42.42h-16.99c-.23,0-.42-.19-.42-.42V.42c0-.23.19-.42.42-.42h16.99ZM28.12,32.36v-4.34c0-.12-.1-.22-.22-.22h-3.89c-.12,0-.22.1-.22.22v4.34c0,.12.1.22.22.22h3.89c.12,0,.22-.1.22-.22ZM35.75,12.46v-4.34c0-.12-.1-.22-.22-.22h-3.89c-.12,0-.22.1-.22.22v4.34c0,.12.1.22.22.22h3.89c.12,0,.22-.1.22-.22ZM28.12,52.27v-4.33c0-.12-.1-.22-.22-.22h-3.89c-.12,0-.22.1-.22.22v4.33c0,.12.1.22.22.22h3.89c.12,0,.22-.1.22-.22ZM35.75,32.36v-4.34c0-.12-.1-.22-.22-.22h-3.89c-.12,0-.22.1-.22.22v4.34c0,.12.1.22.22.22h3.89c.12,0,.22-.1.22-.22ZM35.75,22.41v-4.34c0-.12-.1-.22-.22-.22h-3.89c-.12,0-.22.1-.22.22v4.34c0,.12.1.22.22.22h3.89c.12,0,.22-.1.22-.22ZM28.12,42.32v-4.33c0-.13-.1-.22-.22-.22h-3.89c-.12,0-.22.1-.22.22v4.33c0,.13.1.22.22.22h3.89c.12,0,.22-.1.22-.22ZM35.75,42.32v-4.33c0-.13-.1-.22-.22-.22h-3.89c-.12,0-.22.1-.22.22v4.33c0,.13.1.22.22.22h3.89c.12,0,.22-.1.22-.22ZM28.12,12.46v-4.34c0-.12-.1-.22-.22-.22h-3.89c-.12,0-.22.1-.22.22v4.34c0,.12.1.22.22.22h3.89c.12,0,.22-.1.22-.22ZM35.75,52.27v-4.33c0-.12-.1-.22-.22-.22h-3.89c-.12,0-.22.1-.22.22v4.33c0,.12.1.22.22.22h3.89c.12,0,.22-.1.22-.22ZM28.12,22.41v-4.34c0-.12-.1-.22-.22-.22h-3.89c-.12,0-.22.1-.22.22v4.34c0,.12.1.22.22.22h3.89c.12,0,.22-.1.22-.22ZM78.98,38.92c0,.19-.16.35-.35.35h-17.47c-.19,0-.35-.16-.35-.35v-3.49c0-.19.16-.35.35-.35h17.47c.19,0,.35.16.35.35v3.49ZM58.75,10.96c.02.05.04.11.04.17v47.42c0,.23-.19.41-.42.41h-16.97c-.23,0-.42-.19-.42-.41v-26.02c0-.13.06-.24.14-.33l.08-.1,16.69-21.18.14-.18s.02-.01.03-.02c.07-.05.15-.08.24-.08.2,0,.37.14.43.32ZM56.81,46.27v-3.17c0-.23-.19-.42-.42-.42h-5.06c-.23,0-.42.18-.42.42v3.17c0,.23.19.42.42.42h5.06c.23,0,.42-.19.42-.42ZM56.81,40.41v-3.17c0-.23-.19-.42-.42-.42h-5.06c-.23,0-.42.19-.42.42v3.17c0,.23.19.41.42.41h5.06c.23,0,.42-.19.42-.41ZM49.09,34.56v-7.17c-.05-.22-.23-.39-.46-.39-.15,0-.28.07-.37.18l-.12.15c-1.23,1.5-4.15,5.1-4.79,6.03-.02.02-.03.05-.05.07-.01.02-.03.04-.04.05-.02.02-.02.03-.03.05-.02.05-.03.1-.03.16v.88c0,.23.19.42.42.42h5.06c.23,0,.42-.19.42-.42ZM56.81,28.7v-3.17c0-.23-.19-.42-.42-.42h-5.06c-.23,0-.42.19-.42.42v3.17c0,.23.19.42.42.42h5.06c.23,0,.42-.19.42-.42ZM49.08,52.12v-3.17c0-.23-.19-.41-.41-.41h-5.06c-.23,0-.42.19-.42.41v3.17c0,.23.19.42.42.42h5.06c.23,0,.41-.19.41-.42ZM49.08,40.41v-3.17c0-.23-.19-.42-.41-.42h-5.06c-.23,0-.42.19-.42.42v3.17c0,.23.19.41.42.41h5.06c.23,0,.41-.19.41-.41ZM51.72,22.46c-.06.08-.09.18-.09.29,0,.26.21.47.46.48,0,0,.01,0,.02,0s.01,0,.02,0h4.17s.01,0,.02,0,.01,0,.02,0c.26-.01.46-.22.46-.48v-5.36c-.05-.22-.23-.39-.46-.39-.15,0-.28.07-.37.18l-.12.15c-.94,1.15-2.86,3.52-4.01,4.99l-.12.15ZM49.08,46.27v-3.17c0-.23-.19-.42-.41-.42h-5.06c-.23,0-.42.18-.42.42v3.17c0,.23.19.42.42.42h5.06c.23,0,.41-.19.41-.42ZM56.81,34.56v-3.17c0-.23-.19-.42-.42-.42h-5.06c-.23,0-.42.19-.42.42v3.17c0,.23.19.41.42.41h5.06c.23,0,.42-.19.42-.41ZM56.81,52.12v-3.17c0-.23-.19-.41-.42-.41h-5.06c-.23,0-.42.19-.42.41v3.17c0,.23.19.42.42.42h5.06c.23,0,.42-.19.42-.42Z"/></g></svg>