<?xml version="1.0" encoding="UTF-8"?><svg id="_圖層_2" xmlns="http://www.w3.org/2000/svg" viewBox="0 0 62.73 53.46"><defs><style>.cls-1{fill:#fff;fill-rule:evenodd;}</style></defs><g id="_圖層_1-2"><path class="cls-1" d="M21.25,51.01C10.23,47.61,1.91,38.8.04,28.03l-.04-.35c0-.43.35-.78.78-.78h61.17c.43,0,.78.35.78.78,0,.04,0,.07-.01.11,0,.02,0,.04,0,.06-1.78,10.67-9.87,19.43-20.68,22.97v1.85s0,0,0,0h0c0,.43-.34.77-.76.77,0,0-.01,0-.02,0,0,0-.01,0-.02,0h-19.19s-.01,0-.02,0,0,0-.02,0c-.41,0-.74-.33-.75-.74,0-.01,0-.03,0-.04,0-.01,0-.03,0-.04v-1.64ZM42.01.8c.56-.78,1.74-1.03,2.66-.56.91.47,1.21,1.48.66,2.26-.07.11-4.77,6.96-.13,12.03,3.28,3.58,3.62,7.07,2.8,9.85h-4.04c.82-1.88,1.07-4.67-1.81-7.83-6.3-6.88-.38-15.39-.13-15.75ZM31.78,24.37c.82-1.88,1.07-4.67-1.81-7.83-6.3-6.88-.39-15.39-.13-15.75.55-.78,1.74-1.03,2.65-.56.92.47,1.21,1.48.66,2.26-.07.11-4.77,6.96-.13,12.03,3.28,3.58,3.62,7.07,2.8,9.85h-4.04ZM17.67.8c.55-.78,1.74-1.03,2.65-.56.92.47,1.21,1.48.66,2.26-.07.11-4.77,6.96-.13,12.03,3.28,3.58,3.62,7.07,2.8,9.85h-4.04c.82-1.88,1.07-4.67-1.82-7.83-6.3-6.88-.39-15.39-.13-15.75Z"/></g></svg>