<?xml version="1.0" encoding="UTF-8"?><svg id="_圖層_2" xmlns="http://www.w3.org/2000/svg" viewBox="0 0 127.27 85.9"><defs><style>.cls-1{fill:#231815;}.cls-2{fill:#080808;}.cls-3,.cls-4{fill:#ffb061;}.cls-4{stroke:#231815;stroke-miterlimit:10;stroke-width:2px;}</style></defs><g id="_圖層_2-2"><path class="cls-4" d="M82.69,18.56c0,9.7-17.56,30.59-17.56,30.59,0,0-17.56-20.89-17.56-30.59S55.44,1,65.14,1s17.56,7.86,17.56,17.56Z"/><circle class="cls-2" cx="65.14" cy="16.81" r="6"/><path class="cls-3" d="M5.6,84.87c-.55,0-1-.45-1-1v-12.36c-.19.22-.47.35-.76.35-.05,0-.09,0-.14,0-.36-.05-.66-.29-.79-.63-.38-.98-.95-2.04-1.69-3.15-.04-.05-.06-.11-.09-.17-.22-.37-.18-.85.12-1.18,2.09-2.32,3.88-5.4,5.32-9.15.24-.65.46-1.3.65-1.93.13-.43.53-.71.96-.71.09,0,.18.01.28.04l2.69.77c.1-.03.2-.05.31-.05h17.37c.55,0,1,.45,1,1v2.78c0,.08,0,.16-.03.23h.08c.55,0,1,.45,1,1v4.34c0,.55-.45,1-1,1h-1.4s0,0,0,0c.3.17.5.5.5.87v1.76s0,.06,0,.08h1.23c.55,0,1,.45,1,1v2.75c0,.55-.45,1-1,1h-.02c.06.12.09.26.09.41v6.86c0,1.57-.38,2.63-1.15,3.22-.14.1-.27.18-.39.25-.73.39-1.88.58-3.59.58-.32,0-.61-.15-.79-.39-.13.06-.28.1-.44.1h-2.84c-.49,0-.89-.35-.98-.81-.09.46-.5.81-.98.81h-2.84c-.46,0-.84-.31-.96-.73,0,.55-.45.99-1,.99h-3.11c-.55,0-1-.45-1-1v-9.87c0-.14.03-.28.09-.41h-.2c-.08,0-.16,0-.23-.03v10.36c0,.55-.45,1-1,1h-3.25ZM25.11,80.05v-2.39h-.2v2.39c.06,0,.13,0,.2,0ZM9.86,68.8c.07-.02.15-.03.23-.03h.85s0-.08,0-.11v-1.76c0-.36.19-.67.47-.85h-1.22c-.11,0-.22-.02-.32-.05v2.8Z"/><path class="cls-1" d="M8.18,55.95l3.16.91c-.82,2.3-1.65,4.32-2.49,6.04v20.98h-3.25v-15.38c-.23.35-.82,1.14-1.76,2.37-.41-1.05-1.01-2.17-1.79-3.34-.02-.06-.04-.1-.06-.12,2.19-2.42,4.02-5.58,5.51-9.46.25-.68.48-1.35.67-1.99M28.84,56.71v2.78h-7.27v1.23h8.32v4.34h-2.4v.94h-5.13v-1.79h4.86v-1.03h-5.65v5.98h-3.25v-5.98h-5.57v1.03h4.8v1.79h-5.07v-.94h-2.31v-4.34h8.14v-1.23h-6.86v-2.78h17.37M17.56,66.9v1.76h-5.62v-1.76h5.62M27.99,66.93v1.76h-5.62v-1.76h5.62M30.21,69.78v2.75h-8.73l-.67,1.41h8.47v6.86c0,1.23-.25,2.04-.76,2.43-.08.06-.16.11-.23.15-.59.31-1.63.47-3.13.47-.08-.74-.36-1.68-.85-2.81.43.02.93.03,1.49.03.2-.04.3-.15.32-.32v-4.07h-2.2v6.88h-2.84v-6.88h-1.96v6.88h-2.84v-6.88h-1.96v7.15h-3.11v-9.87h6.15c.14-.51.24-.98.32-1.41h-7.59v-2.75h20.13M8.18,53.95c-.86,0-1.65.56-1.91,1.42-.18.6-.4,1.23-.63,1.88-1.38,3.62-3.11,6.59-5.12,8.82-.58.65-.67,1.57-.27,2.3.04.09.09.18.15.27.7,1.05,1.23,2.04,1.59,2.96.26.67.87,1.15,1.58,1.26.01,0,.02,0,.04,0v11.02c0,1.1.9,2,2,2h3.25c.46,0,.88-.15,1.21-.41.32.22.71.35,1.13.35h3.11c.46,0,.88-.15,1.21-.41.23.09.49.15.75.15h2.84c.36,0,.69-.09.98-.26.29.16.62.26.98.26h2.84c.06,0,.12,0,.18,0,.31.19.67.3,1.05.3,1.88,0,3.17-.22,4.07-.7.15-.07.33-.19.49-.31,1.06-.81,1.56-2.13,1.56-4.03v-6.57c.56-.35.94-.98.94-1.69v-2.75c0-1.1-.9-2-2-2h-.23v-.72c1.06-.05,1.9-.93,1.9-2v-4.34c0-.76-.43-1.43-1.05-1.76v-2.25c0-1.1-.9-2-2-2H11.46c-.09,0-.19,0-.28.02l-2.45-.7c-.18-.05-.37-.08-.55-.08h0Z"/><path class="cls-3" d="M57.29,84.87c-.55,0-1-.45-1-1v-.08h-16.75v.08c0,.55-.45,1-1,1h-3.34c-.55,0-1-.45-1-1v-26.87c0-.55.45-1,1-1h25.58c.55,0,1,.45,1,1v26.87c0,.55-.45,1-1,1h-3.49ZM51.77,78.62c-.59-.32-1.17-.66-1.71-1.03v1.03h1.71ZM44.92,78.62v-1.04c-.69.37-1.41.71-2.17,1.04h2.17ZM39.79,78.62c-.08-.12-.16-.23-.25-.35v.35h.25ZM55.6,75.27c.24.08.47.16.69.22v-.7c-.22.16-.45.32-.69.47ZM39.54,74.82c.85-.28,1.65-.58,2.4-.91h-.85c-.55,0-1-.45-1-1v-5.01s-.54,0-.55,0v6.92ZM56.29,72.14v-4.23s-.34,0-.34,0v4l.34.23ZM56.29,63.88v-2.69h-.46c.13.17.21.38.21.61v1.93s0,.1,0,.14c0,0,.26,0,.27,0ZM39.54,63.88s.44,0,.44,0c0-.05,0-.09,0-.14v-1.93c0-.23.08-.44.21-.61h-.64v2.69Z"/><path class="cls-1" d="M60.78,57v26.87h-3.49v-1.08h-18.75v1.08h-3.34v-26.87h25.58M38.54,79.62h18.75v-19.42h-18.75v19.42M49.5,60.55v1.26h5.54v1.93h-5.54v1.14h6.77v2.02h-16.7v-2.02h6.71v-1.14h-5.3v-1.93h5.3v-1.26h3.22M54.95,67.78v4.66l1.49,1c-.9.7-1.92,1.38-3.08,2.02,1.33.59,2.51,1,3.54,1.23-.72.66-1.31,1.4-1.76,2.2-.02.04-.03.07-.03.09-2.3-.78-4.33-1.91-6.06-3.4v3.37h-3.13v-3.11c-1.48.94-3.19,1.77-5.13,2.49-.47-.74-1.07-1.46-1.82-2.17l-.09-.09c2.77-.82,5.08-1.88,6.91-3.16h-4.72v-5.13h13.86M44.08,71.12h7.73v-1.49h-7.73v1.49M53.28,72.91h-3.52l-.09.09c.59.53,1.14.97,1.67,1.32.06-.04.7-.51,1.93-1.41M60.78,55h-25.58c-1.1,0-2,.9-2,2v26.87c0,1.1.9,2,2,2h3.34c.77,0,1.45-.44,1.78-1.08h15.19c.33.64,1,1.08,1.78,1.08h3.49c1.1,0,2-.9,2-2v-26.87c0-1.1-.9-2-2-2h0Z"/><path class="cls-3" d="M67.67,84.9c-.17,0-.34-.04-.5-.13l-2.31-1.32c-.26-.15-.43-.4-.49-.69s.02-.59.21-.82c.92-1.13,1.53-3.03,1.8-5.65,0-.05.02-.11.03-.16-.13-.17-.21-.38-.21-.61v-8.81c-.51-.48-.96-.83-1.33-1.04-.26-.15-.45-.4-.5-.7-.05-.3.03-.6.22-.83,1.86-2.17,3.2-5.03,4-8.51.11-.46.51-.78.97-.78.04,0,.08,0,.12,0l3.22.38c.29.03.55.19.71.43.16.24.21.54.14.82-.09.35-.2.71-.31,1.08h1.28l.45-.13c.09-.03.19-.04.29-.04.2,0,.39.06.56.17l1.96,1.32c.4.27.55.79.36,1.23-.32.75-.7,1.52-1.12,2.32h1.34v-.58c0-.55.45-1,1-1h1c-.35-1.1-.86-2.27-1.5-3.48-.14-.26-.16-.56-.05-.83.11-.27.33-.48.6-.58l2.93-1.03c.11-.04.22-.06.33-.06.34,0,.66.17.85.47,1.1,1.77,1.86,3.62,2.29,5.5h.27c.85-1.76,1.49-3.53,1.92-5.25.11-.45.52-.76.97-.76.07,0,.14,0,.21.02l3.63.76c.3.06.55.25.68.52s.15.58.02.86c-.68,1.53-1.28,2.81-1.79,3.84h.97c.55,0,1,.45,1,1v3.13c0,.55-.45,1-1,1h-3.92v.61h3.45c.55,0,1,.45,1,1v3.08c0,.55-.45,1-1,1h-3.45v.81h4.6c.55,0,1,.45,1,1v3.11c0,.55-.45,1-1,1h-4.6v6.21c0,.55-.45,1-1,1h-3.49c-.55,0-1-.45-1-1v-6.21h-3.24c.54,1.21.95,2.41,1.23,3.6.12.48-.14.98-.61,1.16l-2.31.91c-.12.05-.24.07-.37.07-.17,0-.35-.05-.5-.13-.17-.1-.31-.25-.4-.42-.11.07-.23.13-.36.15l-2.31.5c-.07.02-.14.02-.21.02-.22,0-.43-.07-.6-.2-.06-.04-.11-.09-.16-.15-.15.14-.35.23-.57.26l-2.43.26s-.07,0-.11,0c-.26,0-.5-.1-.69-.28-.18-.17-.29-.41-.31-.65-.29.66-.61,1.22-.98,1.67-.02.04-.1.14-.18.22-.19.2-.45.3-.71.3ZM83.48,72.5v-.81h-3.28c-.1,0-.2-.01-.29-.04v.85h3.57ZM79.92,66.65c.09-.03.19-.04.29-.04h3.28v-.61h-3.57v.65ZM71.7,62.45c.03-.07.07-.13.1-.2h-.05c-.03.06-.06.13-.09.2h.05Z"/><path class="cls-1" d="M89.17,55.86l3.63.76c-1.05,2.38-1.9,4.13-2.55,5.24h2.64v3.13h-4.92v2.61h4.45v3.08h-4.45v2.81h5.6v3.11h-5.6v7.21h-3.49v-7.21h-5.1v-3.11h5.1v-2.81h-4.28v-3.08h4.28v-2.61h-4.92v-3.13h2.31c-.35-1.54-1-3.19-1.93-4.95l2.93-1.03c1.07,1.74,1.81,3.53,2.2,5.36l-1.64.62h5.74l-2.02-.5c.9-1.86,1.57-3.69,2.02-5.51M69.57,55.86l3.22.38c-.2.72-.43,1.5-.7,2.34h2.78l.59-.18,1.96,1.32c-.51,1.17-1.14,2.41-1.9,3.72h3.4v12.07h-11.72v-9.23c-.7-.7-1.32-1.2-1.85-1.49,1.97-2.3,3.38-5.28,4.22-8.94M73.35,61.25h-2.26c-.1.25-.44.99-1.03,2.2h2.26c.55-1.09.89-1.83,1.03-2.2M74.2,68.11h1.7v-1.85h-1.7v1.85M70.04,68.11h1.7v-1.85h-1.7v1.85M74.2,72.71h1.7v-1.93h-1.7v1.93M70.04,72.71h1.7v-1.93h-1.7v1.93M78.27,75.93c1.05,1.86,1.8,3.69,2.23,5.51l-2.31.91c-.23-1.58-.91-3.48-2.02-5.68l2.11-.73M75.37,76.37c.7,1.74,1.15,3.6,1.35,5.6l-2.31.5c-.1-1.64-.5-3.53-1.2-5.68l2.17-.41M67.37,76.4l2.46.62c-.37,3.26-1.05,5.51-2.05,6.74-.04.06-.08.11-.12.15l-2.31-1.32c1.05-1.29,1.73-3.35,2.02-6.18M72.53,76.43c.35,2.13.5,4.11.44,5.95l-2.43.26c.12-1.74.03-3.72-.26-5.95l2.26-.26M89.17,53.86c-.9,0-1.72.61-1.94,1.52-.24.97-.55,1.96-.94,2.95-.44-1.19-1.02-2.35-1.72-3.49-.37-.6-1.02-.95-1.7-.95-.22,0-.44.04-.66.11l-2.93,1.03c-.55.19-.99.62-1.2,1.16-.21.53-.18,1.12.07,1.62l-1.58-1.06c-.33-.22-.72-.34-1.12-.34-.19,0-.39.03-.57.08l-.11.03c.07-.49-.04-.99-.32-1.41-.33-.48-.84-.8-1.42-.87l-3.22-.38c-.08,0-.16-.01-.24-.01-.92,0-1.74.64-1.95,1.55-.76,3.32-2.04,6.04-3.79,8.08-.39.46-.56,1.06-.45,1.65.11.59.47,1.1,1,1.39.17.1.44.27.82.61v8.37c0,.29.06.56.17.81-.32,2.92-1.03,4.32-1.57,4.98-.37.46-.53,1.05-.42,1.63s.46,1.08.98,1.37l2.31,1.32c.31.18.65.26.99.26.52,0,1.04-.2,1.42-.59.11-.11.21-.23.3-.36.12-.15.23-.31.34-.48.25.11.53.17.81.17.07,0,.14,0,.22-.01l2.43-.26c.13-.01.26-.04.39-.08.26.12.54.18.83.18.14,0,.28-.01.42-.04l2.17-.47c.06.04.12.09.19.12.31.18.65.27,1,.27.25,0,.49-.05.73-.14l2.31-.91c.7-.27,1.16-.9,1.25-1.61v2.12c0,1.1.9,2,2,2h3.49c1.1,0,2-.9,2-2v-5.21h3.6c1.1,0,2-.9,2-2v-3.11c0-.88-.57-1.63-1.36-1.9.14-.27.22-.59.22-.92v-3.08c0-.38-.11-.74-.29-1.04.46-.37.76-.93.76-1.57v-3.13c0-.9-.59-1.66-1.41-1.91.35-.74.74-1.58,1.15-2.52.24-.55.23-1.18-.05-1.72-.28-.54-.78-.92-1.37-1.05l-3.63-.76c-.14-.03-.28-.04-.41-.04h0ZM81.73,78.6h.76v2.58c0-.07-.02-.14-.04-.21-.19-.79-.43-1.58-.72-2.37h0Z"/><path class="cls-3" d="M109.19,84.87c-.55,0-1-.45-1-1v-4.95c-2.36,2.01-5.01,3.62-7.91,4.79-.28.11-.52.2-.74.28-.11.04-.23.06-.34.06-.34,0-.66-.17-.85-.47-.63-1.01-1.4-1.94-2.27-2.76-.26-.25-.37-.61-.29-.96.08-.35.35-.63.69-.73,2.63-.78,5.03-1.89,7.14-3.31h-5.95c-.55,0-1-.45-1-1v-3.28c0-.55.45-1,1-1h2.28c-.21-.18-.35-.46-.35-.76v-12.54c0-.55.45-1,1-1h21.06c.55,0,1,.45,1,1v12.54c0,.3-.13.57-.35.76h2.1c.55,0,1,.45,1,1v3.28c0,.55-.45,1-1,1h-5.74c1.87,1.18,3.93,2.14,6.13,2.85.25.07.52.15.77.24.34.11.59.39.66.74.07.35-.04.71-.31.95-.78.71-1.49,1.6-2.1,2.64l-.93-.4.87.49c-.19.33-.55.54-.92.54-.11,0-.22-.02-.33-.06-3.08-1.16-5.96-2.86-8.58-5.07v5.13c0,.55-.45,1-1,1h-3.78Z"/><path class="cls-1" d="M121.67,57.24v12.54h-8.7v1.76h11.46v3.28h-8.85c2.6,2.11,5.58,3.71,8.94,4.8.27.08.53.16.76.23-.86.78-1.62,1.74-2.29,2.87-.04.06-.07.11-.09.15-3.42-1.29-6.54-3.24-9.38-5.86-.2-.18-.38-.35-.56-.53v7.38h-3.78v-7.24c-2.68,2.68-5.77,4.73-9.29,6.15-.25.1-.49.19-.7.26-.68-1.09-1.49-2.08-2.43-2.96,3.44-1.02,6.45-2.56,9.02-4.63.27-.21.53-.43.76-.64h-8.88v-3.28h11.51v-1.76h-8.58v-12.54h21.06M112.96,62.13h4.75v-1.93h-4.75v1.93M104.35,62.13h4.83v-1.93h-4.83v1.93M112.96,66.79h4.75v-1.9h-4.75v1.9M104.35,66.79h4.83v-1.9h-4.83v1.9M121.67,55.24h-21.06c-1.1,0-2,.9-2,2v12.3h-.93c-1.1,0-2,.9-2,2v3.28c0,1.1.9,2,2,2h2.14c-1.14.53-2.35.98-3.61,1.36-.69.2-1.21.76-1.38,1.46-.17.7.05,1.43.58,1.92.81.76,1.52,1.62,2.1,2.56.37.6,1.02.94,1.7.94.23,0,.46-.04.68-.12.23-.08.47-.17.74-.28,2.36-.96,4.56-2.18,6.57-3.67v2.88c0,1.1.9,2,2,2h3.78c1.1,0,2-.9,2-2v-3.07c2.25,1.66,4.67,2.98,7.23,3.94.23.09.47.13.71.13.72,0,1.4-.39,1.76-1.05.02-.03.04-.06.06-.09.56-.95,1.2-1.76,1.91-2.4.53-.48.76-1.2.61-1.89-.15-.7-.65-1.26-1.33-1.48-.25-.08-.52-.17-.8-.25-.81-.26-1.6-.56-2.36-.89h1.69c1.1,0,2-.9,2-2v-3.28c0-1.1-.9-2-2-2h-.75v-12.3c0-1.1-.9-2-2-2h0Z"/></g></svg>