<?xml version="1.0" encoding="UTF-8"?><svg id="_圖層_2" xmlns="http://www.w3.org/2000/svg" viewBox="0 0 126.8 86.58"><defs><style>.cls-1{fill:#231815;}.cls-2{fill:#080808;}.cls-3,.cls-4{fill:#ffb061;}.cls-4{stroke:#231815;stroke-miterlimit:10;stroke-width:2px;}</style></defs><g id="_圖層_2-2"><path class="cls-4" d="M80.95,54.44c0,9.7-17.56,30.59-17.56,30.59,0,0-17.56-20.89-17.56-30.59s7.86-17.56,17.56-17.56,17.56,7.86,17.56,17.56Z"/><circle class="cls-2" cx="63.4" cy="52.69" r="6"/><path class="cls-3" d="M13.31,31.3c-.33,0-.65-.16-.84-.46-.51-.8-1.15-1.54-1.9-2.19l-.11-.1c-.13-.1-.24-.23-.31-.38v1.96c0,.55-.45,1-1,1h-3.31c-.55,0-1-.45-1-1v-5.41c-.11.21-.23.41-.34.6-.18.3-.51.48-.85.48-.05,0-.09,0-.14,0-.4-.06-.72-.34-.83-.73-.21-.78-.73-1.93-1.55-3.41-.18-.33-.16-.74.06-1.06,1.32-1.87,2.43-4.75,3.33-8.56h-2.07c-.55,0-1-.45-1-1v-3.31c0-.55.45-1,1-1h2.4V2.15c0-.55.45-1,1-1h3.31c.55,0,1,.45,1,1v4.57h1.47c.07-.05.14-.1.22-.13l2.61-1.08c.12-.05.25-.08.38-.08.34,0,.66.17.85.47v-3.71c0-.55.45-1,1-1h3.25c.39,0,.73.22.89.55.17-.33.5-.55.89-.55h3.37c.55,0,1,.45,1,1v3.99c.02-.07.04-.14.06-.2.07-.28.26-.51.52-.64.14-.07.29-.1.45-.1.13,0,.25.02.38.07l3.25,1.32c.26.1.46.31.56.57.1.26.08.55-.04.8l-1,1.99c-1.06,2.14-1.82,3.55-2.31,4.32-.19.29-.51.46-.84.46-.05,0-.11,0-.16-.01,2.43,2.54,3.93,4.21,4.56,5.12.28.4.23.95-.12,1.29l-1.92,1.87c.5.26,1,.45,1.52.57.48.12.8.57.76,1.06-.27,2.87-.89,4.6-1.96,5.44-.66.5-1.46.74-2.41.74h-2.37c-2.22,0-3.19-.96-3.61-1.77-.45-.83-.67-2.13-.67-3.98v-6.29c-.42,3.66-1.44,6.63-3.06,8.85-1.03,1.39-2.32,2.57-3.82,3.51-.17.1-.35.15-.53.15ZM10.15,27.28c.09-.19.24-.36.44-.45,1.46-.71,2.59-1.73,3.41-3.06-.09.08-.18.16-.27.23-.18.16-.42.24-.65.24-.07,0-.13,0-.2-.02-.3-.06-.56-.26-.7-.53l-1.7-3.37c-.04-.08-.07-.16-.09-.25-.02,0-.05,0-.07,0-.06-.01-.12-.03-.18-.05v7.26ZM26.58,25.64c.03-.15.06-.37.09-.67.04-.43.07-1.05.08-1.86,0-.25.11-.49.28-.67-.27-.37-.58-.77-.94-1.22v3.9c0,.22,0,.39.01.52h.48ZM13.24,15.65c.13.16.22.3.29.43.18.36.13.79-.13,1.09l-.35.42c.75-.5,1.62-1.11,2.62-1.8,0-.28,0-.61,0-.99v-.21l-.86.37c-.13.05-.26.08-.39.08-.16,0-.32-.04-.47-.12-.27-.14-.46-.4-.51-.7-.18-.96-.46-2-.84-3.09-.06.5-.48.89-.99.89h-.89c.83,1.09,1.67,2.31,2.52,3.63Z"/><path class="cls-1" d="M9.15,2.15v5.57h2.46v3.31h-2.46v.62c1.07,1.33,2.17,2.86,3.28,4.6.1.12.17.22.21.29l-2.14,2.55c-.14-.37-.59-1.36-1.35-2.96v14h-3.31v-10.49c-.74,2.25-1.47,3.97-2.2,5.16-.23-.86-.78-2.07-1.64-3.63,1.43-2.03,2.61-5.09,3.54-9.17.08-.33.15-.65.21-.97h-3.31v-3.31h3.4V2.15h3.31M25.09,2.18v9.49c.86-1.82,1.53-3.63,2.02-5.45l3.25,1.32c-.21.43-.55,1.09-1,1.99-1.04,2.09-1.79,3.5-2.26,4.22l-2.02-.97v2.99l.79-.7c2.58,2.68,4.18,4.46,4.8,5.36l-2.29,2.23c-.64-1.02-1.75-2.39-3.31-4.13v6.59c0,.9.09,1.39.26,1.46.08.04.18.06.29.06h1.44c.29,0,.49-.53.59-1.58.04-.45.07-1.09.09-1.93.96.7,1.95,1.18,2.99,1.44-.23,2.52-.76,4.1-1.58,4.75-.47.35-1.06.53-1.79.53h-2.37c-1.39,0-2.29-.41-2.72-1.23-.37-.68-.56-1.86-.56-3.52V2.18h3.37M19.93,2.18v12.63c0,5.35-1.03,9.43-3.08,12.25-.96,1.29-2.14,2.37-3.54,3.25-.57-.88-1.26-1.68-2.08-2.4-.08-.08-.15-.14-.21-.18,2.87-1.41,4.64-3.9,5.3-7.47-1.46,1.39-2.55,2.38-3.25,2.99l-1.7-3.37c1.04-.62,2.79-1.81,5.27-3.54.02-.35.03-.86.03-1.52v-1.73l-2.26.97c-.37-1.95-1.1-4.13-2.2-6.53l2.61-1.08c.7,1.43,1.32,2.95,1.85,4.57V2.18h3.25M9.15.15h-3.31c-1.1,0-2,.9-2,2v3.57h-1.4c-1.1,0-2,.9-2,2v3.31c0,1.1.9,2,2,2h.79c-.81,3.08-1.77,5.42-2.87,6.99-.44.62-.48,1.44-.12,2.11.97,1.77,1.33,2.71,1.46,3.2.21.77.86,1.34,1.65,1.45.09.01.19.02.28.02.07,0,.13,0,.2,0v3.34c0,1.1.9,2,2,2h3.31c.93,0,1.71-.64,1.94-1.5.2.24.38.5.54.75.38.59,1.03.92,1.68.92.36,0,.73-.1,1.06-.3,1.61-1.01,2.99-2.27,4.09-3.76.48-.65.9-1.36,1.28-2.13.07,1.51.33,2.62.77,3.44.54,1.02,1.76,2.28,4.48,2.28h2.37c1.16,0,2.17-.31,2.99-.93,1.34-1.05,2.08-3,2.37-6.16.09-.96-.52-1.85-1.45-2.11l.79-.77c.7-.68.8-1.77.25-2.57-.38-.55-1.18-1.57-3.7-4.24.06-.07.11-.14.16-.21.52-.79,1.29-2.24,2.37-4.42l.77-1.53.23-.45c.25-.5.28-1.08.08-1.6s-.6-.94-1.12-1.15l-3.25-1.32c-.24-.1-.5-.15-.75-.15h-.02v-2.04c0-1.1-.9-2-2-2h-3.37c-.32,0-.62.08-.89.21-.27-.13-.57-.21-.89-.21h-3.25c-1.1,0-2,.9-2,2v2.25c-.21.02-.41.06-.61.15l-2.61,1.08s-.08.03-.11.05h-.19v-3.57c0-1.1-.9-2-2-2h0ZM11.15,25.34v-1.48l.14.28c.13.26.32.49.54.66-.21.19-.44.37-.68.53h0Z"/><path class="cls-3" d="M42.78,31.24c-.29-.01-.57-.15-.75-.38-.45-.56-1.11-1.16-1.98-1.76l-.33-.2c-.25-.15-.43-.41-.47-.7-.05-.29.04-.59.24-.81.58-.66,1.07-1.41,1.46-2.22l-2.41.99c-1.51.61-2.59,1.05-3.25,1.32-.12.05-.25.08-.38.08-.14,0-.29-.03-.42-.09-.25-.12-.45-.34-.53-.6l-1.14-3.57c-.08-.26-.06-.55.08-.79.13-.24.36-.42.62-.49.36-.09,1.15-.34,2.36-.73v-7.74h-1.61c-.55,0-1-.45-1-1v-3.31c0-.55.45-1,1-1h1.61V2.53c0-.55.45-1,1-1h3.31c.55,0,1,.45,1,1v5.71h1.19v-1.96c0-.55.45-1,1-1h8.03c-.03-1.38-.04-2.43-.04-3.16,0-.55.45-1,1-1h3.34c.27,0,.52.11.71.3.1.1.17.22.22.34l1.05-.62c.16-.09.33-.14.51-.14.25,0,.5.09.69.27,1.54,1.46,2.56,2.68,3.12,3.74.08.15.12.31.12.47.23.18.38.47.38.79v3.25c0,.55-.45,1-1,1h-4.69c.05.98.12,1.94.18,2.85.09-.36.17-.72.25-1.1.1-.47.51-.79.98-.79.06,0,.12,0,.18.02l3.22.59c.27.05.51.21.66.44.15.23.2.52.13.78-.72,2.92-1.62,5.51-2.67,7.75h0c.27,0,.53.1.71.31.69.78,1.39,1.31,2.08,1.58.42.16.67.58.63,1.03-.31,3.12-.92,5-1.94,5.92-.72.61-1.62.9-2.72.9-1.48-.04-2.73-.92-3.73-2.61-1.01,1.01-2.15,1.96-3.4,2.82-.17.12-.37.18-.57.18-.3,0-.59-.13-.79-.38-.59-.75-1.27-1.42-2.02-1.99-.08-.05-.2-.13-.29-.2-.27-.2-.42-.52-.4-.85s.2-.64.49-.81c.37-.22.72-.45,1.07-.69-.33.03-.72.04-1.15.04-.26,0-.54,0-.85-.02-.21,0-.41-.08-.57-.2-.67,1.94-1.59,3.55-2.76,4.83-.19.21-.46.33-.74.33-.01,0-.02,0-.04,0ZM58.42,23.55c.06.24.12.45.18.64.03-.3.05-.65.08-1.07-.08.15-.17.29-.25.43ZM52.69,21.66c-.04.5-.08.89-.12,1.19.09-.12.19-.23.28-.35-.06-.27-.11-.55-.16-.84ZM47.78,21.48c.05-.37.17-1.54.24-4.86h-.36c-.01,1.76-.11,3.39-.29,4.85.14,0,.28,0,.42,0ZM41.18,19.42l.98-.35s.09-.03.13-.04c.06-.86.08-1.79.08-2.8v-2.69h-1.19v5.88ZM51.62,11.75c-.02-.4-.04-.81-.06-1.22h-3.9v1.22h3.97Z"/><path class="cls-1" d="M58.2,2c1.45,1.37,2.42,2.53,2.93,3.49l-1.26.79h1.64v3.25h-5.74c.16,3.28.39,6.17.7,8.67.7-1.58,1.29-3.49,1.76-5.71l3.22.59c-1.04,4.18-2.4,7.62-4.1,10.31.49,2.05,1.02,3.09,1.58,3.11.43,0,.69-1.46.79-4.39v-.06c.8.9,1.62,1.51,2.46,1.85-.27,2.79-.81,4.55-1.61,5.27-.51.43-1.19.64-2.05.64-1.39-.04-2.55-1.15-3.49-3.34-1.19,1.37-2.6,2.61-4.22,3.72-.64-.82-1.38-1.54-2.2-2.17-.12-.08-.21-.15-.29-.21,2.23-1.33,4.09-3.02,5.6-5.07-.7-3.26-1.17-7.67-1.41-13.21h-5.86v3.22h5.33s0,.42-.03,1.2c-.08,5.41-.25,8.6-.53,9.58-.08.25-.17.45-.26.59-.43.59-.99.94-1.67,1.05-.42.09-1.01.13-1.77.13-.25,0-.52,0-.81-.01-.12-1.17-.36-2.11-.73-2.81-.57,3.34-1.69,5.93-3.37,7.76-.51-.64-1.24-1.3-2.2-1.96-.16-.1-.28-.18-.38-.23,1.15-1.31,1.95-2.86,2.4-4.66l-4.48,1.85c-1.5.61-2.59,1.04-3.25,1.32l-1.14-3.57c.45-.12,1.48-.44,3.11-.97v-9.46h-2.61v-3.31h2.61V2.53h3.31v6.71h2.34v3.31h-2.34v8.29l2.31-.82.41,2.2c.31-1.56.47-3.55.47-5.98V6.28h9.05c-.04-1.88-.06-3.26-.06-4.16h3.34c-.02,1.41-.02,2.79,0,4.16h2.34c-.57-.9-1.33-1.85-2.29-2.84l2.43-1.44M47.86,22.48c.33-.02.59-.14.76-.35.21-.37.35-2.52.41-6.45v-.06h-2.37v.62c0,2.32-.15,4.38-.44,6.15.53.06,1.07.09,1.64.09M58.2,0c-.35,0-.7.09-1.02.28l-.33.2c-.33-.23-.73-.36-1.14-.36h-3.34c-1.1,0-2,.9-2,2,0,.54,0,1.27.02,2.16h-7.02c-.45,0-.86.15-1.19.39v-2.14c0-1.1-.9-2-2-2h-3.31c-1.1,0-2,.9-2,2v4.71h-.61c-1.1,0-2,.9-2,2v3.31c0,1.1.9,2,2,2h.61v6.01c-.96.31-1.41.44-1.61.49-.53.14-.98.49-1.25.97-.26.48-.32,1.05-.15,1.57l1.14,3.57c.17.53.55.97,1.06,1.2.27.12.56.19.84.19.26,0,.52-.05.76-.15.58-.24,1.49-.61,2.72-1.1-.13.33-.18.69-.12,1.05.09.59.44,1.1.95,1.41.08.05.18.11.31.19.77.54,1.35,1.05,1.73,1.53.36.46.91.74,1.5.76.02,0,.05,0,.07,0,.56,0,1.1-.24,1.48-.65.83-.9,1.54-1.96,2.13-3.16.13.39.37.73.7.98.09.07.2.14.33.23.66.51,1.27,1.11,1.79,1.78.39.5.98.76,1.57.76.39,0,.79-.11,1.13-.35.96-.66,1.85-1.36,2.68-2.11,1.07,1.34,2.35,2.04,3.84,2.08.02,0,.04,0,.06,0,1.34,0,2.46-.38,3.34-1.12.02-.01.03-.03.05-.04,1.23-1.11,1.93-3.13,2.26-6.56.09-.89-.43-1.73-1.26-2.05-.54-.21-1.12-.66-1.7-1.32-.05-.05-.09-.1-.14-.14.9-2.08,1.68-4.42,2.32-7.01.13-.54.04-1.1-.26-1.57-.18-.28-.43-.51-.72-.67.65-.33,1.1-1.01,1.1-1.79v-3.25c0-.47-.16-.9-.43-1.24-.04-.17-.1-.33-.18-.49-.62-1.16-1.7-2.47-3.32-4-.38-.36-.88-.55-1.38-.55h0Z"/><path class="cls-3" d="M84.17,31.27c-.47,0-.87-.34-.96-.8-.14-.7-.42-1.49-.82-2.34l-1.01.69c-.17.11-.36.17-.56.17-.09,0-.19-.01-.28-.04-.29-.08-.52-.29-.64-.56-.44-1.01-1.35-2.2-2.71-3.55l-.12-.12c-.21-.21-.32-.51-.29-.81.01-.14.06-.27.13-.39h-.15v3.39c0,.55-.45,1-1,1h-4.65v.99c0,.55-.45,1-1,1h-3.25c-.55,0-1-.45-1-1V10.06c0-.55.45-1,1-1h4.48c-.02-.07-.03-.15-.03-.23v-.93h-5.24c-.55,0-1-.45-1-1v-3.13c0-.55.45-1,1-1h5.24v-.61c0-.55.45-1,1-1h3.52c.55,0,1,.45,1,1v.61h4.86v-.61c0-.55.45-1,1-1h3.49c.55,0,1,.45,1,1v.61h5.5c.55,0,1,.45,1,1v3.13c0,.55-.45,1-1,1h-5.5v.44c.28.18.47.49.47.85v.41h4.48c.55,0,1,.45,1,1v2.78c0,.32-.15.6-.38.79h.35c.55,0,1,.45,1,1v2.81c0,.45-.3.84-.72.96.24.18.4.47.4.8v2.78c0,.55-.45,1-1,1h-2.11v3.54c0,1.54-.37,2.59-1.13,3.21-.3.2-.52.33-.75.43-.88.4-2.2.59-4.02.59-.18,0-.37,0-.56,0ZM84.94,26.42c.12,0,.23,0,.33,0v-2.91h-2.41c.65.76,1.17,1.47,1.55,2.14.14.24.16.52.09.77.16,0,.3,0,.44,0ZM71.56,22.83v-2.04h-.46v2.04h.46ZM71.56,15.77v-1.63h-.46v1.63h.46ZM77.01,14.15c-.1-.08-.19-.19-.26-.3v.3h.26ZM76.57,9.48c.12.16.18.36.18.58v.04c.17-.31.5-.52.88-.52h4.42c-.23-.18-.38-.47-.38-.79v-.9h-4.86v.93c0,.25-.09.48-.24.65Z"/><path class="cls-1" d="M86.15,2.15v1.61h6.5v3.13h-6.5v1.9h-3.49v-1.9h-6.86v1.93h-3.52v-1.93h-6.24v-3.13h6.24v-1.61h3.52v1.61h6.86v-1.61h3.49M86.62,9.18v1.41h5.48v2.78h-5.48v1.79h6.45v2.81h-3.43v1.76h3.11v2.78h-3.11v4.54c0,1.21-.25,2.02-.76,2.43-.18.12-.35.21-.53.29-.74.34-1.95.5-3.62.5-.18,0-.36,0-.54,0-.18-.88-.53-1.85-1.05-2.9.72.04,1.32.05,1.81.05.33,0,.6,0,.83-.02.31-.04.48-.18.5-.41v-4.48h-5.74c1.41,1.35,2.41,2.56,3.02,3.63l-2.72,1.85c-.49-1.13-1.46-2.42-2.93-3.87l-.12-.12,2.29-1.49h-3.37v-2.78h9.58v-1.76h-9.84v-2.81h6.86v-1.79h-5.65v-2.78h5.65v-1.41h3.34M75.75,10.06v16.85h-5.65v1.99h-3.25V10.06h8.91M70.1,16.77h2.46v-3.63h-2.46v3.63M70.1,23.83h2.46v-4.04h-2.46v4.04M86.15.15h-3.49c-.97,0-1.78.69-1.96,1.61h-2.93c-.18-.92-.99-1.61-1.96-1.61h-3.52c-.97,0-1.78.69-1.96,1.61h-4.28c-1.1,0-2,.9-2,2v3.13c0,.85.53,1.57,1.27,1.86-.3.35-.48.8-.48,1.3v18.84c0,1.1.9,2,2,2h3.25c1.1,0,2-.89,2-1.99h3.65c1.1,0,2-.89,2-1.99.7.84,1.05,1.46,1.23,1.87.24.55.7.96,1.28,1.13.18.05.37.08.56.08.4,0,.79-.12,1.12-.34.13.36.22.7.29,1.02.18.92.98,1.59,1.92,1.61.2,0,.39,0,.58,0,2,0,3.41-.22,4.44-.68.27-.12.54-.27.81-.45.05-.03.1-.07.15-.11,1.01-.82,1.51-2.12,1.51-3.99v-2.54h1.11c1.1,0,2-.9,2-2v-2.78c0-.19-.03-.38-.08-.56.25-.33.4-.75.4-1.2v-2.81c0-.73-.39-1.36-.97-1.71,0-.02,0-.05,0-.07v-2.78c0-.74-.41-1.39-1.01-1.74.9-.2,1.57-1,1.57-1.95v-3.13c0-1.1-.9-2-2-2h-4.54c-.18-.92-.99-1.61-1.96-1.61h0Z"/><path class="cls-3" d="M108.89,31.1c-.55,0-1-.45-1-1v-4.06c-.98.74-2.03,1.42-3.14,2.04-1.77.98-3.58,1.78-5.39,2.36-.1.03-.2.05-.31.05-.35,0-.68-.18-.86-.5-.12-.21-.28-.45-.46-.71-.18-.27-.38-.53-.59-.8-.22-.27-.43-.54-.65-.79-.21-.24-.4-.45-.58-.63-.26-.26-.35-.63-.25-.98.1-.35.38-.62.73-.7,1.6-.38,3.2-.9,4.76-1.56.32-.14.64-.28.95-.42h-4.57c-.55,0-1-.45-1-1v-3.11c0-.55.45-1,1-1h3.23c-.03-.08-.07-.17-.11-.26-.16-.35-.33-.7-.54-1.07-.2-.37-.42-.74-.65-1.1-.23-.36-.46-.69-.7-1-.19-.25-.25-.57-.17-.87.02-.08.05-.15.09-.22-.34-.14-.58-.45-.62-.84-.02-.18-.05-.38-.1-.61-.06-.26-.12-.52-.18-.79-.06-.25-.13-.49-.21-.73-.08-.24-.16-.45-.23-.63-.12-.31-.09-.65.1-.93.18-.27.49-.44.82-.44,1.56-.02,3.17-.06,4.78-.12v-.63h-5.5c-.55,0-1-.45-1-1v-3.11c0-.55.45-1,1-1h5.5v-.79c0-.55.45-1,1-1h3.63c.55,0,1,.45,1,1v.79h4.3v-.79c0-.55.45-1,1-1h3.63c.55,0,1,.45,1,1v.79h5.53c.55,0,1,.45,1,1v3.11c0,.55-.45,1-1,1h-2.76l2.05,2.01c.26.26.36.63.26.99-.1.35-.38.62-.74.7-.24.06-.49.11-.74.16l.89.32c.29.1.51.33.61.62.1.29.06.6-.1.86-.63.99-1.28,1.97-1.95,2.94-.41.6-.8,1.15-1.17,1.64h3.66c.55,0,1,.45,1,1v3.11c0,.55-.45,1-1,1h-5.08c.32.15.66.29,1,.43,1.59.65,3.26,1.15,4.95,1.48.37.07.67.35.77.72.1.36-.01.75-.3,1.01-.17.15-.36.35-.57.58-.22.24-.43.5-.62.76-.21.27-.4.54-.59.81-.18.26-.33.5-.46.71-.18.31-.52.5-.86.5-.09,0-.18-.01-.27-.04-1.87-.53-3.7-1.3-5.45-2.29-1.08-.61-2.09-1.28-3.03-2.01v4.04c0,.55-.45,1-1,1h-3.72ZM115.73,18.29c-.26-.12-.45-.35-.53-.62-.09-.29-.04-.6.13-.85.25-.36.51-.76.78-1.2.27-.44.53-.9.79-1.38.26-.49.5-.97.73-1.44l.05-.11c-.06,0-.12.02-.19.03-1.6.22-3.26.4-4.95.55.14.27.28.54.41.81.37.77.62,1.5.73,2.15.04.25-.01.51-.14.71.05.11.07.24.07.37v.99h2.12ZM107.89,18.29v-.99c0-.26.1-.5.26-.68-.08-.24-.17-.5-.28-.77-.25-.62-.55-1.21-.88-1.74-.09-.15-.15-.31-.15-.49-.56.03-1.12.05-1.67.07-.29.01-.58.02-.88.03.22.31.42.63.62.95.25.41.48.82.67,1.22.19.41.35.8.46,1.16.16.5-.1,1.03-.58,1.23h-.01s2.45,0,2.45,0ZM108.66,8.37c1.33-.09,2.63-.2,3.89-.33h-3.89v.33Z"/><path class="cls-1" d="M117.59,2.15v1.79h6.53v3.11h-6.53v1.38c.43-.06.83-.12,1.22-.19.38-.07.75-.14,1.1-.22l2.81,2.75c-1.64.37-3.43.69-5.36.95s-3.93.47-5.99.63c-2.06.16-4.14.27-6.24.35-2.1.08-4.13.13-6.08.15-.02-.21-.06-.46-.12-.73-.06-.27-.12-.55-.19-.82-.07-.27-.15-.54-.23-.81s-.17-.49-.25-.69c1.64-.02,3.31-.06,5.01-.13,1.7-.07,3.38-.16,5.04-.26,1.66-.11,3.26-.24,4.79-.41,1.53-.17,2.95-.35,4.26-.54h-3.4v-1.41h-6.3v1.79h-3.63v-1.79h-6.5v-3.11h6.5v-1.79h3.63v1.79h6.3v-1.79h3.63M119.12,11.84l3.63,1.32c-.62.98-1.27,1.95-1.93,2.92s-1.27,1.79-1.82,2.48l-2.84-1.17c.25-.37.52-.79.81-1.25.28-.46.56-.94.82-1.44s.51-.99.75-1.48c.23-.49.43-.95.59-1.38M110.97,12.55c.39.61.75,1.26,1.08,1.95.33.69.55,1.32.64,1.89l-2.72.91h2.64v1.99h11.51v3.11h-8.82c1.25.9,2.71,1.68,4.37,2.36s3.37,1.19,5.13,1.54c-.2.18-.41.4-.64.66s-.46.54-.67.82-.42.57-.62.85c-.2.28-.36.54-.5.78-1.8-.51-3.54-1.24-5.23-2.2s-3.2-2.06-4.53-3.31v6.21h-3.72v-6.18c-1.37,1.23-2.91,2.32-4.63,3.28s-3.46,1.72-5.21,2.29c-.14-.23-.3-.49-.5-.78-.2-.28-.41-.57-.63-.85-.22-.28-.45-.56-.67-.82s-.43-.49-.63-.69c1.66-.39,3.3-.93,4.92-1.61,1.62-.68,3.06-1.46,4.31-2.34h-8.32v-3.11h11.37v-1.99h.47c-.1-.53-.28-1.13-.56-1.82-.27-.68-.6-1.32-.97-1.9l3.13-1.03M102.51,13.04c.27.31.54.65.81,1.03.26.37.51.75.75,1.13s.44.76.62,1.13c.18.37.31.71.41,1.03l-3.16,1.26c-.08-.29-.2-.62-.37-1-.17-.37-.36-.75-.57-1.14-.21-.39-.44-.78-.69-1.16s-.49-.74-.75-1.07l2.96-1.2M117.59.15h-3.63c-1.03,0-1.88.78-1.99,1.79h-2.32c-.11-1-.96-1.79-1.99-1.79h-3.63c-1.03,0-1.88.78-1.99,1.79h-4.52c-1.1,0-2,.9-2,2v3.11c0,.74.41,1.39,1.01,1.74-.31.53-.37,1.18-.13,1.76.07.16.13.36.21.58.07.22.14.43.19.66.06.25.12.5.18.75.04.19.07.36.08.49.04.44.22.83.49,1.14-.02.46.12.92.41,1.3.22.29.44.6.65.93.19.29.37.59.54.89h-1.62c-1.1,0-2,.9-2,2v3.11c0,.84.52,1.56,1.25,1.86-.21.05-.41.1-.62.15-.71.17-1.27.7-1.47,1.4-.2.7,0,1.45.51,1.96.16.16.33.35.52.57.21.25.42.5.63.77.19.24.38.49.55.74.16.24.3.46.42.65.37.63,1.03.99,1.73.99.2,0,.41-.03.61-.1,1.87-.6,3.75-1.43,5.57-2.44.57-.32,1.12-.65,1.66-.99v2.15c0,1.1.9,2,2,2h3.72c1.1,0,2-.9,2-2v-2.1c.5.33,1.01.64,1.54.94,1.82,1.03,3.73,1.83,5.67,2.38.18.05.36.08.54.08.7,0,1.36-.37,1.73-.99.11-.19.25-.41.42-.65.18-.26.37-.52.56-.78.19-.24.38-.48.58-.7.18-.21.35-.38.49-.5.56-.51.79-1.29.59-2.02-.2-.73-.79-1.28-1.54-1.43-.11-.02-.23-.05-.34-.07.75-.29,1.28-1.02,1.28-1.86v-3.11c0-1.1-.9-2-2-2h-1.71s.03-.05.05-.08c.68-.99,1.34-1.99,1.97-2.97.33-.51.4-1.14.21-1.72-.07-.21-.18-.41-.31-.58.14-.19.24-.4.31-.64.2-.7,0-1.46-.52-1.97l-.3-.29h.3c1.1,0,2-.9,2-2v-3.11c0-1.1-.9-2-2-2h-4.54c-.11-1-.96-1.79-1.99-1.79h0ZM114.08,14.11c.63-.06,1.25-.13,1.86-.2-.22.41-.45.8-.68,1.18-.21.34-.41.65-.6.93-.11-.61-.3-1.23-.59-1.9h0ZM106.06,14.66s.06,0,.09,0c.3.48.57,1,.79,1.57.04.1.07.19.11.28-.03.07-.06.14-.08.21-.12-.39-.29-.8-.5-1.24-.13-.27-.27-.54-.42-.81h0Z"/></g></svg>