<?xml version="1.0" encoding="UTF-8"?><svg id="_圖層_2" xmlns="http://www.w3.org/2000/svg" viewBox="0 0 72.67 36.8"><defs><style>.cls-1{fill:#fff;}</style></defs><g id="_圖層_1-2"><path class="cls-1" d="M66.41,3.82C61.27-.24,54.46-.33,51.97.27l-.29.07c-2.88.68-7.45,1.81-12.81,8.45-.03.04-.06.07-.09.11l-.07.08c-.05.07-.09.16-.09.26,0,.08.02.15.06.22l.12.2c.67,1.12,1.52,2.57,2.24,3.9,0,.01.01.03.02.04.08.15.23.25.41.25.12,0,.24-.05.32-.13.03-.04.07-.09.1-.14,4.75-6.57,8.49-7.48,11.02-8.07l.3-.07c1.31-.32,6.3-.3,9.9,2.55,2.81,2.22,4.24,5.75,4.24,10.49,0,7.96-3.87,11.07-7.12,12.28-5.03,1.88-9.85-.63-9.89-.65l-.22-.11c-2.76-1.2-6.89-3.7-10.77-11.5C31.51,2.78,24.96,1.29,20.62.31l-.23-.05c-1.97-.45-8.83-.76-14.22,3.54C3.35,6.04,0,10.41,0,18.46c0,4.9,1.01,8.14,3.6,11.54.57.78,6.37,8.23,17.59,6.08,1.8-.34,4.23-1.2,6.9-3.2l2.47,2.23c.16.15.42.13.57-.03.07-.08.1-.17.1-.27v-.03l1.78-10.96v-.12c0-.11-.04-.21-.13-.29-.08-.07-.17-.1-.26-.1h-.08s-.12.02-.12.02l-10.49,2.94-.19.03c-.08.02-.15.06-.2.12-.15.17-.14.42.03.57l.12.11,2.35,2.12c-1.52.98-2.84,1.43-3.85,1.63-8.11,1.55-12.12-3.77-12.27-3.98l-.06-.08c-1.88-2.48-2.52-4.58-2.52-8.34,0-4.76,1.4-8.29,4.16-10.5,3.51-2.8,8.35-2.82,9.72-2.51l.24.05c3.55.8,8.42,1.91,15.13,15.37,3.48,6.99,7.85,11.57,13.34,13.98.7.36,4.03,1.94,8.36,1.94,1.81,0,3.79-.28,5.82-1.03,3.18-1.19,10.58-5.24,10.58-17.28,0-8.04-3.41-12.42-6.26-14.67"/></g></svg>