<?xml version="1.0" encoding="UTF-8"?><svg id="_圖層_2" xmlns="http://www.w3.org/2000/svg" viewBox="0 0 23.07 29.85"><defs><style>.cls-1{fill:#17803d;}</style></defs><g id="_圖層_1-2"><path class="cls-1" d="M22.84,5.13c-.22-.52-.58-.96-1.05-1.27-.46-.31-1.02-.49-1.62-.49h-2.49s0-.43,0-.43h-3.6c.02-.12.03-.24.03-.36C14.11,1.16,12.95,0,11.53,0s-2.58,1.16-2.58,2.58c0,.12,0,.24.03.36h-3.6s0,.43,0,.43h-2.49c-.4,0-.78.08-1.12.23-.52.22-.96.58-1.27,1.05C.18,5.1,0,5.66,0,6.25v20.71c0,.4.08.78.23,1.12.22.52.59.96,1.05,1.27.46.31,1.02.49,1.62.49h17.29c.4,0,.78-.08,1.12-.23.52-.22.96-.58,1.27-1.05.31-.46.49-1.02.49-1.62V6.25c0-.4-.08-.78-.23-1.13ZM11.53,1.62c.53,0,.96.43.96.96,0,.13-.03.25-.07.36h-1.77c-.04-.11-.07-.23-.07-.36,0-.53.43-.96.96-.96ZM21.35,26.96c0,.16-.03.32-.09.45-.09.21-.24.39-.42.52-.19.13-.41.2-.65.2H2.89c-.16,0-.32-.03-.46-.09-.21-.09-.39-.24-.52-.43-.13-.19-.2-.41-.2-.65V6.25c0-.16.03-.32.09-.46.09-.21.24-.39.42-.52.19-.13.41-.2.65-.2h2.49s0,.36,0,.36c0,.67.54,1.22,1.22,1.22h9.88c.67,0,1.22-.55,1.22-1.22v-.36s2.49,0,2.49,0c.16,0,.32.03.46.09.21.09.39.24.52.42.13.19.2.41.2.65v20.71Z"/><rect class="cls-1" x="5.3" y="10.09" width="12.46" height="1.43"/><rect class="cls-1" x="5.3" y="14.03" width="12.46" height="1.43"/><rect class="cls-1" x="5.31" y="17.97" width="12.46" height="1.43"/><rect class="cls-1" x="11.53" y="22.98" width="6.23" height="1.43"/></g></svg>