<?xml version="1.0" encoding="UTF-8"?><svg id="_圖層_2" xmlns="http://www.w3.org/2000/svg" viewBox="0 0 86.09 43.9"><defs><style>.cls-1{fill:#fff;fill-rule:evenodd;}</style></defs><g id="_圖層_1-2"><path class="cls-1" d="M85.76,21.53c.13.18.24.34.33.48-.09.14-.2.3-.33.48-3.07,4.29-16.96,21.44-42.74,21.41C17.24,43.86,3.4,26.67.33,22.37c-.13-.19-.24-.34-.33-.48.09-.13.2-.29.34-.48C3.41,17.11,17.3-.03,43.08,0c25.78.04,39.62,17.22,42.68,21.53ZM43.05,40c4.09,0,7.87-1.36,10.89-3.66-.41-.16-.4-.36-1.64-.41-1.81-.07-3.04,1.53-3.65,1.88-.61.35-4.43-1.83-7.35-1.55-1.31.12-2.96.69-3.52,2.14-.14.38-.01.69.22.88,1.6.47,3.29.73,5.05.73ZM55.73,34.79c1.79-1.78,3.21-3.93,4.13-6.33,0-.47-.15-.94-.28-1.17-.06-.13-.14-.27-.21-.42-.39-.78-.85.5-3.01,1.03-.73.18-1.7.29-3.26.86-1.14.41-2.5,2.23-1.86,3.84.63,1.6.24,2.69,1.68,1.75,1.45-.94.42.17.9.35.48.18.37-.62,1.35-.12.2.1.38.16.56.21ZM40.63,28.3c1.19-1.9-.35-1.97-1.06-.67-.13.24-.78,3.39-.32,3.74.45.35,1.13-2.67,1.38-3.07ZM55.89,24.78c.2.08.92.11.92-.18s-.48-.84-.85-1.03c-.36-.18-.73.07-.59.51.15.44.32.62.51.7ZM47.97,24.74c.35-.32-.55-1.16-1.16-1.11-.27.02-1.01.6-.56.95.45.35,1.36.47,1.72.16ZM37.38,32.47c.35-1.37.76-.56.93-1.49.18-.93.47-1,.41-2.12-.06-1.12.1-1.38.91-2.19.82-.8.58-.38.82-1.13.24-.75-.58-.96-1.3-1.42-.85-.54-1.73-2-1.64-2.98.06-.68.42-.06,1.26.81.83.87,1.21,1.56,2.06,1.35.85-.2,2.02-.97,1.72-1.84-.2-.58-3.07-2.87-2.94-3.3.15-.49.64-.12,1.51.56.87.69,1.92.57,2.13,1.79.4,2.23,2.94,1.25,4.69,3.26.67.77,1-.06,1.46-.99.46-.93-.36-1.37.28-1.81.64-.44,1.4-.25,1.69.5.29.75.7,1.72,1.07,2.71.35.94,2.5,2.41,2.78,2.43,1.21.08-.42-1.8-.55-2.48-.13-.69.39-1.97.92-2.15.53-.19.74,0,1.89-.75,1.15-.75-.03-.87-.06-2.12-.02-1.24.74-.52.93-.25.71,1.04,1.94.49,2.1-.16.04-.16.1-.44.09-.83-1.88-7.89-8.97-13.77-17.44-13.78-3.56,0-6.88,1.03-9.67,2.82,2.08-.15,6.26-.86,5.81.97-.4,1.62,2.65,1.89,1.1,2.68-.66.34-2.57,1.67-3,1.44-1.19-.64,2.44-1.46,1.74-1.93-.7-.48-2.09.07-3.18.3-.54.12-2.63.11-3.39.48-.77.37-1.67.86-1.42,1.51.26.66,2.33,1.18,2.68,1.18.35,0,.73-.08,1.47-.99.74-.92,1.64-.07,1.38.05-.26.13-.84.54-1.3,1.08-.37.43-1.05.73-1.79.36-.74-.37-2.41-.17-2.73.01-.32.19-1.12.75-1.36.81-.24.06-.59.25-.47.5.12.25.18.55,0,.73-.18.19-.52.58-.98.27-.42-.28-1.66-.16-2,.22-.05.14-.09.29-.13.44-.02.64.25,1.68,1.3.9.34-.26,2.06-.2,3.13-1.2.5-.47,1.06.15,1.18.4.12.25.84,1.8,1.2,1.73.36-.06-.58-1.48-.16-1.55.42-.06.96,1.2,1.22,1.02.69-.48,1.25-.31,1.33.41.06.57-.48.95-1.16,1.23-.95.39-2.59-.5-3.63-.89-1.26-.48-2.94-.74-2.94-.74l-1.05.36s.02.26-.93,1.39c-.04.05-.08.11-.11.17-.06.59-.09,1.19-.09,1.79,0,2.48.5,4.84,1.4,6.99.03,0,.04.02.06.03.99.31.7.15,1.4-.16.7-.31,1.33-.99,1.83-.37.5.62.98.42,1.05,1.42.07,1,1.03-.65,1.21.84.28,2.33.83,1.19.83,1.57,0,1.12.11,3.3.93,3.36.82.06,2.1-.5,2.45-.93.35-.43.76-.93,1.11-2.3ZM56.65,25.34c-.27.02-1.01.6-.56.95.45.36,1.36.47,1.71.16.36-.32-.55-1.16-1.15-1.11ZM60.66,25.74c.25-1.18.38-2.41.38-3.67,0-.35-.01-.7-.03-1.04-.23-.78-.69-1.32-1.56-1.26-.22.02.58.91.31,1.21-1.6,1.83.42,4.62.9,4.76ZM27.76,12.67c-.52.84-.97,1.74-1.34,2.67.13.06.28.09.46.05.57-.12,1.54-1.29,2.16-1.86.22-.2,1.42-.74,1.34-1.04-.07-.3-.67-.52-1.11-.45-.45.07-1.09.15-1.42.52-.02.02-.05.06-.09.11ZM28.68,10.84c-.08.12.08.45.5.51.54.09,1.53-.47,1.91-.86.13-.14.29-.93.24-1.14-.04-.21-.41-.36-.68-.31-.28.05-.67.1-.87.36-.09.12-.87,1.09-1.1,1.44Z"/></g></svg>