<?xml version="1.0" encoding="UTF-8"?><svg id="_圖層_2" xmlns="http://www.w3.org/2000/svg" viewBox="0 0 57.02 55.9"><defs><style>.cls-1{fill:#fff;fill-rule:evenodd;}</style></defs><g id="_圖層_1-2"><path class="cls-1" d="M19.11,32.43c.14,0,.26.12.26.26v8.47c0,.14-.11.26-.26.26h-3.43c-.14,0-.26-.11-.26-.26v-8.47c0-.14.11-.26.26-.26h3.43ZM56.76,45.06c.14,0,.26.12.26.26v3.45c0,.14-.12.25-.26.25H.26c-.14,0-.26-.11-.26-.25v-3.45c0-.14.12-.26.26-.26h56.5ZM56.76,51.92c.14,0,.26.11.26.25v3.46c0,.14-.12.26-.26.26H.26c-.14,0-.26-.12-.26-.26v-3.46c0-.14.12-.25.26-.25h56.5ZM46.01,23.06c.73-.58,2.6-1.84,4.88-1.84,1.67,0,3.21.66,4.59,1.98.1.09.15.22.15.35v.27c0,.22-.15.41-.36.47-.14.03-.28,0-.33-.01-.13-.05-.23-.11-.31-.19-.3-.2-1.1-.47-2.27-.47s-3.55.32-5.83,2.44l-.05.05c-.12.13-.3.2-.48.2-.19,0-.36-.07-.49-.2l-.05-.05c-2.27-2.12-4.62-2.44-5.82-2.44s-1.97.27-2.26.47c-.08.08-.18.14-.28.18-.03.01-.07.02-.11.03-.15.03-.28,0-.4-.09-.11-.09-.16-.24-.16-.39v-.31c0-.13.05-.26.15-.35,1.37-1.28,2.89-1.93,4.54-1.93,2.3,0,4.18,1.29,4.89,1.84ZM42.5.54c.71-.36,1.42-.54,2.12-.54,1.99,0,3.29,1.44,3.81,2.14.44-.16,1.18-.38,2.03-.38,1.14,0,2.74.4,3.83,2.3.04.07.07.15.07.24,0,.05,0,.1-.02.14l-.05.17c-.04.13-.12.23-.24.29-.07.04-.15.06-.22.06-.02,0-.03,0-.05,0-.03,0-.06,0-.08-.01-.05-.02-.14-.06-.18-.09-.08-.06-.14-.13-.19-.21-.22-.24-1.15-.82-2.58-.82-.84,0-1.7.21-2.52.62l-.04.02c-.08.04-.18.07-.29.07-.05,0-.14-.01-.18-.03-.15-.04-.28-.14-.36-.29l-.02-.04c-1.51-2.56-3.78-2.64-4.04-2.64-.19,0-.29.03-.34.04-.09.05-.18.07-.27.07-.02,0-.05,0-.07,0-.14,0-.26-.08-.35-.19-.09-.12-.12-.28-.08-.42l.06-.19c.04-.13.13-.24.25-.3ZM30.56,9.23c0-.13.04-.26.13-.36,1.16-1.23,2.51-1.85,4.01-1.85,1.71,0,3.17.84,3.77,1.25.66-.58,2.24-1.75,4.23-1.75,1.28,0,2.49.48,3.61,1.42.1.09.16.21.17.34v.22c.03.22-.11.42-.31.49-.04.01-.08.03-.12.03-.09,0-.17,0-.21-.01-.12-.03-.22-.09-.29-.15-.21-.12-.73-.27-1.47-.27-1.04,0-3.07.3-4.95,2.29l-.04.04c-.1.12-.27.2-.44.21h-.04c-.16,0-.31-.06-.44-.16l-.04-.04c-1.7-1.4-3.37-1.69-4.47-1.69s-1.91.32-2.15.49c-.06.08-.15.14-.24.18-.02,0-.05.02-.08.03-.13.04-.27.01-.38-.06-.13-.08-.22-.22-.23-.38l-.02-.25ZM1.97,13.77c0-3.38,2.74-6.13,6.13-6.13.13,0,.26.01.39.02.32-4.28,3.89-7.66,8.26-7.66s8.29,3.71,8.29,8.29c0,1.3-.31,2.52-.84,3.61,4.15.92,7.25,4.61,7.25,9.04,0,5.12-4.15,9.26-9.26,9.26-.37,0-12.36-.07-12.36-.07-3.62,0-6.56-2.94-6.56-6.56,0-1.74.68-3.32,1.79-4.49-1.84-1.06-3.08-3.04-3.08-5.31Z"/></g></svg>