<?xml version="1.0" encoding="UTF-8"?><svg id="_圖層_2" xmlns="http://www.w3.org/2000/svg" viewBox="0 0 156.75 86.48"><defs><style>.cls-1{fill:#231815;}.cls-2{fill:#080808;}.cls-3,.cls-4{fill:#ffb061;}.cls-4{stroke:#231815;stroke-miterlimit:10;stroke-width:2px;}</style></defs><g id="_圖層_2-2"><path class="cls-4" d="M95.6,54.34c0,9.7-17.56,30.59-17.56,30.59,0,0-17.56-20.89-17.56-30.59s7.86-17.56,17.56-17.56,17.56,7.86,17.56,17.56Z"/><circle class="cls-2" cx="78.05" cy="52.59" r="6"/><path class="cls-3" d="M4.08,30.98c-.55,0-1-.45-1-1v-11.07c0-.55.45-1,1-1h1.06s0-.08,0-.11v-6.24c0-.1.01-.2.04-.29h-3.17c-.55,0-1-.45-1-1V3.7c0-.55.45-1,1-1h9.81v-.7c0-.55.45-1,1-1h3.66c.55,0,1,.45,1,1v.7h10.13c.55,0,1,.45,1,1v6.56c0,.55-.45,1-1,1h-3.17c.03.09.04.19.04.29v6.24s0,.08,0,.11h1.06c.55,0,1,.45,1,1v11.02c0,.55-.45,1-1,1h-3.52c-.42,0-.77-.25-.92-.62h-12.72c-.13.39-.51.67-.95.67h-3.34Z"/><path class="cls-1" d="M16.47,2v1.7h11.13v6.56h-3.57v-3.57H5.4v3.57h-3.4V3.7h10.81v-1.7h3.66M22.83,8.01v2.43H6.6v-2.43h16.23M23.47,11.55v6.24H6.13v-6.24h17.34M9.38,15.48h10.63v-1.58h-10.63v1.58M25.53,18.9v11.02h-3.52v-.62H7.42v.67h-3.34v-11.07h21.45M16.33,22.92h5.68v-1.44h-5.68v1.44M7.42,22.92h5.48v-1.44h-5.48v1.44M16.33,26.7h5.68v-1.52h-5.68v1.52M7.42,26.7h5.48v-1.52h-5.48v1.52M16.47,0h-3.66c-1,0-1.83.74-1.98,1.7H2C.9,1.7,0,2.59,0,3.7v6.56c0,1.1.9,2,2,2h2.13v4.64h-.05c-1.1,0-2,.9-2,2v11.07c0,1.1.9,2,2,2h3.34c.6,0,1.13-.26,1.5-.67h11.65c.36.38.88.62,1.44.62h3.52c1.1,0,2-.9,2-2v-11.02c0-1.1-.9-2-2-2h-.05v-4.64h2.13c1.1,0,2-.9,2-2V3.7c0-1.1-.9-2-2-2h-9.16c-.15-.96-.98-1.7-1.98-1.7h0Z"/><path class="cls-3" d="M38.25,30.98c-.55,0-1-.45-1-1v-6.9c-.8.54-1.65,1.06-2.54,1.54-.15.08-.31.12-.47.12-.1,0-.21-.02-.31-.05-.26-.08-.47-.27-.59-.52-.4-.84-.96-1.59-1.66-2.23-.13-.1-.25-.18-.35-.26-.27-.21-.41-.55-.37-.89.04-.34.25-.64.55-.79,1.89-.93,3.54-2.06,4.94-3.38h-3.74c-.55,0-1-.45-1-1v-2.9c0-.55.45-1,1-1h1.71c-.08-.15-.13-.31-.13-.49v-2.81c0-.17.04-.33.11-.46h-.11c-.55,0-1-.45-1-1v-2.87c0-.55.45-1,1-1h8.21c.03-.35.07-.74.11-1.17.05-.52.48-.91,1-.91.02,0,3.74.27,3.74.27.27.02.52.15.7.36s.26.48.23.75c-.03.26-.05.5-.08.71h10.04c.55,0,1,.45,1,1v2.87c0,.55-.45,1-1,1h-.11c.07.14.11.3.11.46v2.81c0,.18-.05.35-.13.49h1.74c.55,0,1,.45,1,1v2.9c0,.55-.45,1-1,1h-3.19c1.29,1.05,2.75,1.9,4.38,2.55.32.13.56.42.61.76.06.34-.07.69-.33.92-.74.64-1.44,1.49-2.09,2.56-.05.12-.13.26-.26.39-.19.19-.44.28-.7.28-.15,0-.29-.03-.43-.1-.91-.43-1.77-.91-2.56-1.42v7.29c0,.55-.45,1-1,1h-3.63c-.48,0-.88-.34-.98-.79h-6.9c-.05.51-.47.91-1,.91h-3.52Z"/><path class="cls-1" d="M43.61,2l3.66.26c-.1.9-.17,1.5-.21,1.82h11.16v2.87h-11.69c-.04.16-.1.4-.18.73-.08.33-.14.58-.18.73h11.04v2.81h-6.09c.31.59.6,1.08.85,1.49h7.85v2.9h-5.68c1.76,1.95,3.93,3.45,6.5,4.48-.84.72-1.62,1.68-2.34,2.87-.02.06-.04.1-.06.12-1.52-.72-2.85-1.55-3.98-2.49v9.26h-3.63v-.79h-8.88v.91h-3.52v-8.88c-1.19.96-2.53,1.84-4.01,2.64-.47-.98-1.11-1.84-1.93-2.58-.14-.1-.25-.19-.35-.26,2.77-1.37,5.04-3.12,6.8-5.27h-6.04v-2.9h8c.29-.53.54-1.03.73-1.49h-6.15v-2.81h7.21c.06-.19.19-.68.38-1.46h-8.58v-2.87h9.11c.06-.53.13-1.22.21-2.08M44.63,12.72h3.57c-.23-.45-.46-.95-.67-1.49h-2.29c-.21.61-.42,1.1-.62,1.49M42.03,17.15h8.91c-.41-.51-.77-1.02-1.08-1.52h-6.77c-.41.63-.76,1.13-1.05,1.52M41.76,21.75h8.88v-1.85h-8.88v1.85M41.76,26.32h8.88v-1.99h-8.88v1.99M43.61,0c-1.03,0-1.9.78-1.99,1.82,0,.09-.02.18-.02.26h-7.3c-1.1,0-2,.9-2,2v2.87c0,.74.4,1.38,1,1.73v2.04h-.58c-1.1,0-2,.9-2,2v2.9c0,1.1.9,2,2,2h.9c-.79.54-1.64,1.03-2.54,1.48-.61.3-1.03.9-1.1,1.58-.07.68.2,1.35.74,1.78.1.08.21.16.34.25.6.55,1.05,1.17,1.4,1.89.24.49.66.87,1.18,1.04.2.07.41.1.62.1.33,0,.65-.08.95-.24.36-.2.72-.4,1.06-.6v5.08c0,1.1.9,2,2,2h3.52c.7,0,1.32-.36,1.68-.91h5.61c.37.48.94.79,1.59.79h3.63c1.1,0,2-.9,2-2v-5.53c.37.2.74.39,1.13.57.27.13.57.19.86.19.51,0,1.01-.2,1.4-.57.19-.18.33-.39.45-.64.59-.95,1.21-1.71,1.86-2.27.53-.46.78-1.15.67-1.84-.11-.69-.58-1.27-1.23-1.53-.48-.19-.95-.4-1.39-.63,1.02-.09,1.83-.95,1.83-1.99v-2.9c0-1.1-.9-2-2-2h-.61v-2.04c.6-.35,1-.99,1-1.73v-2.87c0-1.1-.9-2-2-2h-8.97c-.04-.4-.19-.78-.46-1.1-.35-.42-.85-.67-1.39-.71L43.75,0s-.1,0-.15,0h0Z"/><path class="cls-3" d="M65.59,30.66c-.55,0-1-.45-1-1V9.24c0-.55.45-1,1-1h3.66c.55,0,1,.45,1,1v13.74h4.5V2.79c0-.55.45-1,1-1h3.72c.55,0,1,.45,1,1v20.18h4.83v-13.79c0-.55.45-1,1-1h3.72c.55,0,1,.45,1,1v20.39c0,.55-.45,1-1,1h-3.72c-.55,0-1-.45-1-1v-.9h-15.05v.99c0,.55-.45,1-1,1h-3.66Z"/><path class="cls-1" d="M79.47,2.79v21.18h6.83v-14.79h3.72v20.39h-3.72v-1.9h-17.05v1.99h-3.66V9.24h3.66v14.74h6.5V2.79h3.72M79.47.79h-3.72c-1.1,0-2,.9-2,2v19.18h-2.5v-12.74c0-1.1-.9-2-2-2h-3.66c-1.1,0-2,.9-2,2v20.42c0,1.1.9,2,2,2h3.66c1.1,0,2-.89,2-1.99h13.05c.05,1.06.93,1.9,2,1.9h3.72c1.1,0,2-.9,2-2V9.18c0-1.1-.9-2-2-2h-3.72c-1.1,0-2,.9-2,2v12.79h-2.83V2.79c0-1.1-.9-2-2-2h0Z"/><path class="cls-3" d="M98.32,31.04c-.22,0-.44-.07-.62-.21-.82-.64-1.71-1.19-2.66-1.62-.27-.08-.49-.27-.62-.53-.17-.35-.12-.76.12-1.06,1.78-2.21,2.68-5.65,2.68-10.24v-3.84c0-.25.09-.48.25-.66-.03-.09-.04-.18-.04-.28V3.82c0-.55.45-1,1-1h5.06v-.82c0-.55.45-1,1-1h3.46c.55,0,1,.45,1,1v.82h.9v-.82c0-.55.45-1,1-1h3.52c.55,0,1,.45,1,1v.82h5.39c.55,0,1,.45,1,1v8.73h.2c.55,0,1,.45,1,1v2.52c0,.55-.45,1-1,1h-1.31v2.13h2.11c.55,0,1,.45,1,1v2.55c0,.5-.37.92-.86.99.06.16.08.33.06.51-.05.34-.28.63-.59.77-.54.23-1.08.46-1.63.67.86.15,1.77.27,2.72.34.38.03.72.28.86.64.14.36.06.77-.21,1.05-.65.68-1.25,1.6-1.79,2.73-.17.35-.52.57-.9.57-.04,0-.09,0-.13,0-3.46-.46-6.33-1.4-8.57-2.81v.12c.02.52-.36.96-.88,1.02-3.26.39-6.77.79-10.53,1.2-.04,0-.07,0-.11,0-.5,0-.93-.37-.99-.87l-.07-.54c-.31.54-.65,1.05-1.02,1.53-.16.21-.4.35-.67.38-.04,0-.08,0-.12,0ZM102.06,23.74c-.12.61-.26,1.2-.42,1.76l.58-.05v-1.71h-.15ZM107.7,24.92l1.35-.13c-.25-.34-.49-.69-.7-1.05h-.65v1.18Z"/><path class="cls-1" d="M114.37,2v1.82h6.39v8.79h-22.32V3.82h6.06v-1.82h3.46v1.82h2.9v-1.82h3.52M114.37,7.19h2.96v-1.2h-2.96v1.2M107.96,7.19h2.9v-1.2h-2.9v1.2M101.71,7.19h2.78v-1.2h-2.78v1.2M114.37,10.41h2.96v-1.2h-2.96v1.2M107.96,10.41h2.9v-1.2h-2.9v1.2M101.71,10.41h2.78v-1.2h-2.78v1.2M121.96,13.54v2.52h-20.33v1.38c0,.86-.03,1.78-.09,2.75h21.21v2.55h-2.37l1.58,1.35c-1.54.66-3.09,1.25-4.63,1.76,1.78.61,3.79,1,6.04,1.17-.72.76-1.38,1.76-1.96,2.99-4.24-.57-7.49-1.85-9.76-3.84l.06,2.17c-3.26.39-6.77.79-10.52,1.2l-.38-2.96,2.4-.21v-3.63h-1.99c-.47,2.97-1.44,5.4-2.9,7.29-.9-.7-1.87-1.29-2.9-1.76-.04-.02-.07-.03-.09-.03,1.93-2.4,2.9-6.02,2.9-10.87v-3.84h23.73M118.18,22.74h-5.65c.57.66,1.23,1.25,1.99,1.76.64-.25,1.87-.84,3.66-1.76M106.7,26.02l4.34-.41c-.84-.88-1.54-1.84-2.11-2.87h-2.23v3.28M119.64,16.97v2.23h-16.52v-2.23h16.52M114.37,0h-3.52c-.57,0-1.09.24-1.45.62-.36-.38-.88-.62-1.45-.62h-3.46c-1.04,0-1.9.8-1.99,1.82h-4.07c-1.1,0-2,.9-2,2v8.79s0,.04,0,.05c-.13.27-.21.57-.21.88v3.84c0,4.35-.83,7.59-2.46,9.62-.48.6-.58,1.42-.25,2.12.24.49.66.86,1.16,1.03.85.39,1.66.89,2.4,1.47.35.28.79.43,1.23.43.08,0,.17,0,.25-.02.53-.07,1.01-.34,1.33-.76.03-.04.06-.08.09-.12.34.25.75.4,1.2.4.07,0,.15,0,.22-.01,3.74-.41,7.28-.81,10.54-1.2.51-.06.96-.31,1.28-.68,2.18,1.15,4.83,1.93,7.92,2.35.09.01.18.02.27.02.76,0,1.47-.44,1.8-1.14.49-1.03,1.03-1.87,1.61-2.47.53-.56.69-1.37.42-2.09-.25-.66-.83-1.13-1.52-1.25.11-.2.19-.43.22-.66,0-.01,0-.03,0-.04.49-.36.81-.95.81-1.61v-2.55c0-1.1-.9-2-2-2h-1.11v-.13h.31c1.1,0,2-.9,2-2v-2.52c0-.82-.49-1.53-1.2-1.83V3.82c0-1.1-.9-2-2-2h-4.4c-.09-1.02-.95-1.82-1.99-1.82h0Z"/><path class="cls-3" d="M143.53,31.12c-.28,0-.57-.12-.76-.35-.58-.68-1.32-1.26-2.22-1.72-.26-.13-.44-.37-.51-.65-.58.47-1.15.89-1.7,1.23-.16.1-.35.15-.53.15-.29,0-.58-.13-.78-.37-.66-.82-1.36-1.45-2.08-1.88-.31-.19-.5-.53-.49-.89s.22-.69.55-.86c.37-.19.73-.39,1.09-.61-.23-.04-.45-.17-.6-.37-.43-.55-.97-1.07-1.6-1.54-.72.35-1.65.82-2.81,1.41-1.32.63-2.24,1.08-2.81,1.37-.14.07-.3.11-.46.11-.12,0-.25-.02-.36-.07-.27-.1-.48-.32-.58-.59l-1.32-3.6c-.09-.25-.08-.52.03-.77.11-.24.32-.43.56-.52.42-.15,1.15-.44,2.19-.87.32-.13.6-.24.84-.33v-6.79h-2.02c-.55,0-1-.45-1-1v-3.34c0-.55.45-1,1-1h2.02V2.35c0-.55.45-1,1-1h3.28c.55,0,1,.45,1,1v4.92h1.81c.55,0,1,.45,1,1v3.34c0,.55-.45,1-1,1h-1.81v4.56l.4-.18v-2.98c0-.55.45-1,1-1h1.65s0-.09,0-.14V2.73c0-.55.45-1,1-1h14.21c.55,0,1,.45,1,1v10.14s0,.1,0,.14h1.03c.55,0,1,.45,1,1v3.02c0,.45-.3.83-.71.96.08.14.12.31.12.48,0,.02-.02.45-.06,1.28-.49,6.91-1.22,8.67-1.73,9.4-.06.11-.17.25-.29.37-.59.72-1.47,1.18-2.55,1.31-.54.06-1.17.1-1.87.1-.42,0-.86-.01-1.34-.03-.5-.02-.91-.42-.95-.93-.03-.37-.08-.73-.16-1.06-.11.13-.22.25-.33.37-.58.64-1.17,1.19-1.73,1.64-.18.14-.4.21-.61.21ZM148.68,26.2c.09,0,.15-.02.18-.03.08-.16.27-.64.48-1.96-.34.69-.72,1.35-1.12,1.98.15,0,.3,0,.46,0ZM137.07,18.26c.07-.08.14-.15.21-.23h-.27l.06.23Z"/><path class="cls-1" d="M133.48,2.35v5.92h2.81v3.34h-2.81v7.09l2.4-1.05.64,2.55c1.07-.94,1.99-1.99,2.75-3.16h-3.4v-3.02h18.87v3.02h-11.92c-.04.1-.08.19-.13.28s-.11.2-.19.32c-.08.13-.13.21-.16.25-.03.04-.09.15-.19.32l-.18.26h12.19s-.02.43-.06,1.23c-.35,4.94-.87,7.9-1.55,8.88-.06.1-.12.18-.18.23-.49.59-1.14.93-1.96,1.03-.5.06-1.08.09-1.75.09-.4,0-.83-.01-1.29-.03-.08-1.07-.34-2-.79-2.78.66.06,1.37.09,2.11.09.41-.02.71-.13.91-.32.45-.53.82-2.4,1.11-5.62h-1.17c-1.04,2.83-2.5,5.28-4.39,7.35-.55.6-1.08,1.11-1.61,1.52-.66-.78-1.5-1.44-2.52-1.96,1.97-1.25,3.69-3.25,5.16-6.01.16-.31.3-.62.44-.91h-1.79c-1.33,2.34-3.08,4.42-5.24,6.24-.61.51-1.19.94-1.76,1.29-.74-.92-1.52-1.62-2.34-2.11,2.05-1.04,3.92-2.61,5.6-4.72.2-.25.37-.49.53-.7h-1.82c-1.13,1.17-2.29,2.15-3.49,2.93-.55-.7-1.24-1.35-2.08-1.93-.1-.06-.18-.11-.23-.15-.76.37-1.88.93-3.34,1.67-1.31.63-2.25,1.08-2.81,1.38l-1.32-3.6c.43-.16,1.17-.45,2.23-.88.64-.25,1.13-.45,1.46-.59v-8.47h-3.02v-3.34h3.02V2.35h3.28M152.73,2.73v10.14h-14.21V2.73h14.21M141.68,6.63h7.73v-1.44h-7.73v1.44M141.68,10.41h7.73v-1.44h-7.73v1.44M133.48.35h-3.28c-1.1,0-2,.9-2,2v3.92h-1.02c-1.1,0-2,.9-2,2v3.34c0,1.1.9,2,2,2h1.02v5.11c-.06.03-.13.05-.2.08-1.05.43-1.77.71-2.18.86-.5.18-.91.55-1.13,1.04s-.25,1.03-.07,1.53l1.32,3.6c.2.54.62.97,1.15,1.18.23.09.48.14.73.14.32,0,.63-.07.92-.22.54-.28,1.44-.72,2.76-1.35.89-.45,1.65-.83,2.27-1.14.22.19.41.38.6.57-.54.35-.87.95-.9,1.6-.03.73.35,1.41.98,1.79.61.36,1.22.92,1.81,1.65.39.49.97.74,1.56.74.36,0,.73-.1,1.05-.3.33-.2.66-.43.99-.67.07.05.14.09.22.13.78.41,1.42.9,1.92,1.48.39.46.96.7,1.53.7.43,0,.86-.14,1.23-.42.3-.23.6-.49.9-.77.34.55.93.93,1.61.96.5.02.96.04,1.39.04.75,0,1.42-.04,2-.11,1.29-.15,2.4-.73,3.21-1.67.13-.14.25-.3.37-.48.65-.97,1.38-2.95,1.87-9.82.04-.91.06-1.35.06-1.37,0,0,0-.01,0-.02.36-.36.59-.86.59-1.41v-3.02c0-1.1-.9-2-2-2h-.02V2.73c0-1.1-.9-2-2-2h-14.21c-1.1,0-2,.9-2,2v3.55c-.07,0-.15-.01-.23-.01h-.81v-3.92c0-1.1-.9-2-2-2h0Z"/></g></svg>