<?xml version="1.0" encoding="UTF-8"?><svg id="_圖層_2" xmlns="http://www.w3.org/2000/svg" viewBox="0 0 31.86 31.59"><defs><style>.cls-1{fill:#17803d;}</style></defs><g id="_圖層_1-2"><path class="cls-1" d="M10.81,4.8c2.1.53,3.84.55,4.94,2.06,0,0,.41-1.51.69-2.19C16.44,4.67,13.97-.15,10.54,0c-3.02.14-3.02,3.98.27,4.8Z"/><path class="cls-1" d="M8.76,14.1c.81-.16,1.73-.25,2.78-.25h7.8c1.79,0,3.25,1.46,3.25,3.25,0,.35-.06.69-.16,1,.99-.66,2.03-1.35,2.89-1.94-.82-4.6-3.63-6.97-8.25-7.16.07-1.31.3-2.57.87-2.83,1.78-.82,5.07-.69,7.27-2.61,2.19-1.92-1.37-5.21-5.76-1.92-2.42,1.82-3.21,4.93-3.44,7.36-4.67.2-6.69,3.44-7.26,5.1Z"/><path class="cls-1" d="M31.29,15.72c-.77-.84-2.2-.66-3.16.05-.88.73-6.87,4.67-6.87,4.67h-7.28s-.02.01-.02.01c-.38-.01-.68-.33-.67-.72.01-.38.34-.68.72-.67h-.02c1.3-.01,5.36-.01,5.36-.01,1.08,0,1.95-.87,1.95-1.95s-.87-1.95-1.95-1.95c-.98,0-2.92,0-7.8,0-4.88,0-6.42,2.03-8.13,3.74l-3.1,2.71C.12,21.77,0,22.02,0,22.29v8.99c0,.12.07.23.18.28.11.05.24.03.33-.05l5.98-5.13c.21-.18.49-.26.76-.21l9.33,1.69c.65.12,1.32-.03,1.86-.41,0,0,11.9-8.28,12.78-9.01.84-.77.83-1.88.06-2.72Z"/></g></svg>