<?xml version="1.0" encoding="UTF-8"?><svg id="_圖層_2" xmlns="http://www.w3.org/2000/svg" viewBox="0 0 30.95 27.17"><defs><style>.cls-1{fill:#17803d;}</style></defs><g id="_圖層_1-2"><path class="cls-1" d="M12.85,7.4c1.67,4.07,8.7,2.34,6.46-2.58-.11-.24-.14-.51-.05-.76.21-.62.87-.56,1.39-.42,1.62.46,7.41,1.83,6.81,3.97-.28,1-.75,2.04-1.12,3.01-.41,1.06-1.46,2.74-1.34,3.87.16,1.51,1.02.85,2,.42,1.61-.71,2.59-.38,3.43,1.08,1.57,2.7-.6,6.62-3.88,6.01-.73-.13-1.7-.51-2.36-1.03-.38-.3-.9-.35-1.31-.1-.05.03-.09.06-.13.1-.71.68-1.04,2.81-1.34,3.68-.26.74-.42,1.69-.81,2.35-.81,1.38-19.1-5.67-19.79-5.98-1.59-.72-.45-2.19.06-3.54C1.66,15.36,6.94.09,7.91,0c1.01-.09,6.94,1.67,7.22,1.9,1.51,1.19-.81,1.93-1.47,2.54-1.04.96-1.19,2.03-.81,2.96Z"/></g></svg>