<?xml version="1.0" encoding="UTF-8"?><svg id="_圖層_2" xmlns="http://www.w3.org/2000/svg" viewBox="0 0 148.36 243.53"><defs><style>.cls-1{fill:#326102;}</style></defs><g id="_圖層_1-2"><path class="cls-1" d="M132.3,12.31L50.06.2c-10.23-1.51-19.83,5.63-21.33,15.86L.2,209.89c-1.5,10.22,5.62,19.83,15.86,21.33l82.24,12.11c10.23,1.51,19.83-5.64,21.33-15.86l28.53-193.83c1.51-10.22-5.63-19.83-15.86-21.33ZM79.07,24.93l15.63,2.3c1.38.2,2.35,1.49,2.15,2.87-.2,1.38-1.5,2.34-2.88,2.14l-15.63-2.3c-1.38-.2-2.35-1.5-2.15-2.88s1.5-2.33,2.88-2.13ZM58.65,227.25c-4.63-.68-7.83-4.99-7.15-9.63s4.99-7.83,9.62-7.15,7.83,4.99,7.15,9.62c-.68,4.63-4.99,7.84-9.62,7.16ZM108.5,207.1l-93.15-13.71L38.19,38.22l93.15,13.71-22.84,155.17Z"/></g></svg>