<?xml version="1.0" encoding="UTF-8"?><svg id="_圖層_2" xmlns="http://www.w3.org/2000/svg" viewBox="0 0 78.02 54.57"><defs><style>.cls-1{fill:#fff;fill-rule:evenodd;}</style></defs><g id="_圖層_1-2"><path class="cls-1" d="M78.02,28.87c0,1.64-.65,3.12-1.69,4.19h0s-8.15,8.17-8.15,8.17l-8.16-8.17c-1.04-1.07-1.69-2.56-1.69-4.19,0-3.28,2.23-5.93,5.41-5.93,1.59,0,3.38,1.74,4.42,2.82,1.04-1.07,2.96-2.81,4.55-2.81,3.18,0,5.28,2.65,5.28,5.93ZM43.29,54.57s-.05,0-.08,0c-.62-.04-1.13-.5-1.24-1.11l-4.14-24.13-6.28,11.64c-.27.51-.85.78-1.41.68-.57-.1-1.01-.56-1.09-1.13l-2.66-18.62-4.87,10.95c-.21.48-.69.79-1.22.79H1.34c-.74,0-1.34-.6-1.34-1.34s.6-1.34,1.34-1.34h18.08l6.41-14.4c.24-.55.82-.86,1.41-.78.59.08,1.06.55,1.14,1.14l2.75,19.2,6.19-11.48c.27-.5.83-.78,1.4-.69.56.09,1.01.53,1.1,1.1l3.84,22.35L57.63.95c.16-.53.63-.91,1.18-.95.55-.04,1.07.26,1.31.75l7.36,15.25c.32.67.04,1.47-.62,1.79-.67.32-1.47.04-1.79-.62l-5.86-12.15-14.63,48.6c-.17.57-.69.95-1.28.95Z"/></g></svg>